<svg width="32" height="32" viewBox="0 0 32 32" fill="none" xmlns="http://www.w3.org/2000/svg">
<path fill-rule="evenodd" clip-rule="evenodd" d="M28.7656 20.1253H0V11.874H32L28.7656 20.1253Z" fill="#FF0000"/>
<path fill-rule="evenodd" clip-rule="evenodd" d="M10.3651 15.1429C10.0795 14.7798 9.51758 14.5636 8.82571 14.5636C7.71883 14.5548 6.42133 15.2036 6.17071 16.4054C6.08446 16.8292 6.14446 17.1754 6.36071 17.4436C6.73258 17.9104 7.45883 17.9711 7.75321 17.9711C9.37071 17.9973 10.3132 17.0373 10.5382 16.0773C10.6332 15.7223 10.5726 15.4023 10.3651 15.1429ZM9.27508 15.9042C8.99821 17.2273 8.21133 17.2967 8.05571 17.2967C7.80508 17.2967 7.63196 17.2361 7.53696 17.1236C7.43321 16.9936 7.40696 16.7948 7.45883 16.5267C7.56258 16.0167 8.01258 15.2554 8.79946 15.2554C8.98133 15.2554 9.11071 15.3073 9.18883 15.4023C9.29258 15.5061 9.31821 15.6879 9.27508 15.9042Z" fill="#952F34"/>
<path fill-rule="evenodd" clip-rule="evenodd" d="M12.0584 13.4824L10.3203 17.9105L11.5828 17.9193L13.3209 13.4912L12.0584 13.4824Z" fill="#952F34"/>
<path fill-rule="evenodd" clip-rule="evenodd" d="M19.7361 14.5811C19.0354 14.5811 18.6461 14.6417 18.2661 14.6936L18.1448 14.7111L17.7904 15.6104L17.9286 15.5673C18.2661 15.4636 18.8279 15.3423 19.5892 15.3511C19.9786 15.3598 20.1254 15.4373 20.1773 15.5154C20.2204 15.5673 20.2117 15.6367 20.1948 15.6973C20.0217 15.6886 19.8229 15.6711 19.5811 15.6711C19.3736 15.6711 19.1573 15.6798 18.9236 15.6973C18.5773 15.7236 18.2054 15.7667 17.8423 15.9136C17.3236 16.1123 17.0292 16.4842 16.9948 16.9773C16.9773 17.2279 17.0467 17.4617 17.2111 17.6348C17.4273 17.8767 17.8079 18.0067 18.2923 18.0067C18.6729 18.0067 19.0536 17.9286 19.3217 17.8511L19.3304 17.9548L20.8523 17.9636L20.8348 17.8773C20.8004 17.7217 20.7654 17.5486 20.9386 17.0992L21.3711 15.9748C21.5011 15.6373 21.4923 15.3436 21.3367 15.1186C21.1023 14.7711 20.5492 14.5892 19.7361 14.5811ZM19.7098 17.0111C19.4848 17.1148 19.1648 17.1929 18.8536 17.2011C18.8273 17.2011 18.8017 17.2011 18.7754 17.2011C18.4986 17.2011 18.3773 17.1317 18.3254 17.0711C18.2823 17.0192 18.2648 16.9498 18.2823 16.8723C18.3254 16.6561 18.4723 16.5004 19.0779 16.4398C19.2511 16.4223 19.4154 16.4136 19.6229 16.4136C19.7179 16.4136 19.8304 16.4223 19.9429 16.4223C19.8829 16.5698 19.7273 16.9679 19.7098 17.0111Z" fill="#952F34"/>
<path fill-rule="evenodd" clip-rule="evenodd" d="M16.1606 14.6681C16.1606 14.6681 16.1263 14.7718 16.1 14.8237C15.8231 14.6249 15.4256 14.5987 15.2613 14.5987C13.9725 14.5899 12.7794 15.5324 12.6062 16.7006C12.5544 17.0549 12.6406 17.3837 12.8656 17.6174C13.0644 17.8337 13.3588 17.9462 13.7913 17.9718C13.8431 17.9718 13.8863 17.9718 13.9381 17.9718C14.3619 17.9718 14.7338 17.8856 15.0881 17.7124C14.595 18.3956 13.7475 18.4562 13.4538 18.4562C13.445 18.4562 13.445 18.4562 13.445 18.4562C13.1512 18.4562 12.8138 18.4387 12.5631 18.3181L12.4938 18.2837L12.1562 19.0881L12.2344 19.1056C12.5112 19.1837 12.9263 19.2356 13.2725 19.2356C14.855 19.2443 15.8844 18.6818 16.3169 17.5574L17.4237 14.6774L16.1606 14.6681ZM14.3269 17.2456C14.145 17.2456 14.0156 17.1849 13.9462 17.0812C13.8162 16.8737 13.9031 16.5018 14.0325 16.2337C14.3263 15.6024 14.9062 15.3599 15.2262 15.3518C15.2525 15.3518 15.2781 15.3518 15.2956 15.3518C15.5375 15.3518 15.7019 15.4124 15.8319 15.5249C15.3994 17.1156 14.5781 17.2456 14.3269 17.2456Z" fill="#952F34"/>
<path fill-rule="evenodd" clip-rule="evenodd" d="M4.79343 17.0892C4.3353 17.0892 3.98905 16.9592 3.7903 16.7174C3.61718 16.5099 3.55655 16.2242 3.61718 15.9217C3.79905 14.9355 4.77593 14.2005 5.88343 14.2005C6.21218 14.2005 6.53218 14.2611 6.81718 14.3824L6.8778 14.4086L7.28405 13.6217L7.21468 13.5874C6.92093 13.4492 6.49655 13.3624 6.11655 13.3624C4.1878 13.3536 2.48405 14.4605 2.22468 15.8705C2.13843 16.3724 2.24218 16.8217 2.53593 17.1767C2.91655 17.6349 3.60843 17.903 4.42968 17.9117C4.75843 17.9117 5.15593 17.8686 5.51968 17.7817L5.55405 17.773L6.00405 16.7699L5.83093 16.848C5.63218 16.9505 5.15655 17.0892 4.79343 17.0892Z" fill="#952F34"/>
<path fill-rule="evenodd" clip-rule="evenodd" d="M23.0655 17.2107C22.9355 17.2107 22.8924 17.1844 22.8668 17.15C22.8405 17.1157 22.7974 17.0119 22.9274 16.6919C22.9274 16.6919 23.4893 15.3169 23.5155 15.265C23.6018 15.265 24.2936 15.265 24.2936 15.265L24.553 14.6075H23.7743L24.1374 13.665L22.7968 13.89L21.6724 16.6919C21.4993 17.1069 21.4993 17.41 21.6461 17.6344C21.8018 17.8507 22.0961 17.9544 22.5455 17.9544C22.7793 17.9544 23.1074 17.9113 23.3843 17.8419L23.4186 17.8332L23.7474 17.0375L23.583 17.0982C23.4718 17.15 23.2468 17.2019 23.0655 17.2107Z" fill="#952F34"/>
<path fill-rule="evenodd" clip-rule="evenodd" d="M27.7821 15.0743C27.5483 14.7631 27.1421 14.6075 26.5714 14.5987C25.3433 14.59 24.2883 15.2818 24.0027 16.2681C23.8558 16.7781 23.9333 17.2193 24.2102 17.5656C24.5127 17.9375 25.0402 18.145 25.7064 18.145C26.0871 18.145 26.5364 18.0843 26.9433 17.9631L26.9696 17.9543L27.4108 17.0637L27.2208 17.15C26.9183 17.2968 26.3989 17.3662 26.0533 17.3662C25.7677 17.3662 25.5258 17.2712 25.3958 17.0981C25.2833 16.96 25.2577 16.7693 25.3008 16.5618C25.4221 16.5618 27.8264 16.5706 27.8264 16.5706L27.8527 16.4925C28.0677 15.9137 28.0414 15.4118 27.7821 15.0743ZM26.7877 15.87C26.6927 15.87 25.7064 15.8612 25.5164 15.8612C25.6464 15.5675 25.9314 15.2906 26.4158 15.2906C26.5889 15.2906 26.7096 15.3337 26.7789 15.4118C26.8483 15.5156 26.8483 15.6712 26.7877 15.87Z" fill="#952F34"/>
<path fill-rule="evenodd" clip-rule="evenodd" d="M8.7172 14.5206C7.60158 14.5118 6.3647 15.1781 6.13095 16.3106C5.88033 17.5125 6.95283 17.7806 7.6447 17.7893C9.19283 17.8156 10.1441 16.89 10.3603 15.9475C10.5766 15.0393 9.78095 14.5206 8.7172 14.5206ZM9.23595 15.8006C8.95033 17.1843 8.11158 17.245 7.9472 17.245C7.67908 17.245 7.48908 17.1756 7.37658 17.0462C7.25533 16.8993 7.22095 16.6831 7.28158 16.3887C7.39408 15.8525 7.86095 15.0568 8.69158 15.0656C8.89033 15.0656 9.04595 15.1262 9.14158 15.2387C9.25283 15.3593 9.28783 15.5581 9.23595 15.8006Z" fill="#FF0000"/>
<path fill-rule="evenodd" clip-rule="evenodd" d="M12.0066 13.4395L10.3203 17.7207L11.4184 17.7295L13.1047 13.4395H12.0066Z" fill="#FF0000"/>
<path fill-rule="evenodd" clip-rule="evenodd" d="M19.6605 16.9512C19.4187 17.0725 19.0724 17.15 18.7524 17.1587C18.2074 17.1762 18.0605 16.9687 18.1037 16.7437C18.1555 16.4581 18.3718 16.3112 18.9599 16.2506C19.2537 16.2243 19.5305 16.2162 19.9374 16.2418L19.6605 16.9512ZM19.6262 14.5381C18.8824 14.5381 18.5018 14.5987 18.0955 14.6681L17.8705 15.2993C18.3287 15.1956 18.7268 15.1437 19.3843 15.1525C20.1624 15.1612 20.223 15.3512 20.1624 15.6712C19.8943 15.6537 19.3924 15.6281 18.8393 15.6625C18.4762 15.6887 18.1299 15.7318 17.7755 15.87C17.2393 16.0775 17.0055 16.4493 16.9712 16.8731C16.9368 17.3575 17.2649 17.8156 18.1993 17.8243C18.5974 17.8243 19.0643 17.7206 19.3237 17.6343L19.3324 17.7643L20.673 17.7731C20.6387 17.6087 20.5949 17.4268 20.7768 16.9512C20.9068 16.6137 21.0624 16.2162 21.2093 15.8268C21.5462 14.9362 20.8199 14.5381 19.6262 14.5381Z" fill="#FF0000"/>
<path fill-rule="evenodd" clip-rule="evenodd" d="M16.1028 14.6251L16.0334 14.8151C15.8084 14.6163 15.4366 14.5557 15.1597 14.5469C13.8366 14.5382 12.7378 15.5157 12.5734 16.5882C12.5216 16.9257 12.6166 17.2369 12.8072 17.4444C13.0059 17.6694 13.3172 17.7557 13.6809 17.7732C14.2172 17.7994 14.7103 17.6951 15.1859 17.3838C14.7966 18.1619 13.9578 18.4044 13.3266 18.3957C13.0153 18.3957 12.6778 18.3782 12.4097 18.2488L12.1328 18.9063C12.4097 18.9844 12.8247 19.0363 13.1534 19.0363C14.7103 19.0451 15.7047 18.4913 16.1284 17.4019L17.2009 14.6169L16.1028 14.6251ZM14.2259 17.1938C13.5772 17.1938 13.6378 16.5626 13.8716 16.0782C14.1653 15.4557 14.7534 15.1701 15.1253 15.1526C15.4022 15.1438 15.6353 15.1869 15.8172 15.3601C15.3766 17.0638 14.4853 17.1938 14.2259 17.1938Z" fill="#FF0000"/>
<path fill-rule="evenodd" clip-rule="evenodd" d="M3.43891 15.7831C3.62891 14.7712 4.60641 14.0012 5.77391 14.01C6.12829 14.01 6.45704 14.0794 6.74266 14.2L7.08891 13.5425C6.80329 13.4125 6.39704 13.3262 6.01641 13.3262C4.15704 13.3175 2.45329 14.3725 2.20266 15.7737C1.97766 17.0194 3.01579 17.72 4.33891 17.72C4.69329 17.72 5.09141 17.6681 5.41141 17.59L5.76579 16.7944C5.55829 16.8894 5.07391 17.0362 4.68454 17.0281C3.63829 17.0287 3.32704 16.3975 3.43891 15.7831Z" fill="#FF0000"/>
<path fill-rule="evenodd" clip-rule="evenodd" d="M22.7027 17.0718C22.6333 16.9768 22.6508 16.795 22.7546 16.5443C22.7546 16.5443 23.2733 15.2906 23.3602 15.0743H24.1302L24.329 14.5643H23.5502L23.9046 13.6475L22.7283 13.8462L22.4515 14.5643H21.9327L21.7427 15.0743H22.2615L21.6302 16.5962C21.4658 16.9856 21.4571 17.2706 21.604 17.47C21.7421 17.66 22.019 17.7556 22.4427 17.7556C22.6846 17.7556 23.0046 17.7125 23.2646 17.6431L23.5152 17.0375C23.3771 17.0981 23.1433 17.15 22.9533 17.1587C22.824 17.1668 22.7465 17.1412 22.7027 17.0718Z" fill="#FF0000"/>
<path fill-rule="evenodd" clip-rule="evenodd" d="M27.6176 14.997C27.3926 14.7032 27.0038 14.5557 26.4676 14.5557C25.2657 14.547 24.2451 15.2132 23.9682 16.1732C23.8301 16.6576 23.8988 17.0814 24.1582 17.4014C24.452 17.7558 24.9626 17.9551 25.5938 17.9551C25.9657 17.9551 26.407 17.8945 26.8045 17.7732L27.142 17.0901C26.8307 17.237 26.2945 17.3151 25.9401 17.3151C25.6288 17.3151 25.3782 17.2114 25.222 17.0214C25.0838 16.8482 25.0488 16.6151 25.1182 16.3726L27.652 16.3814L27.6607 16.347C27.877 15.7926 27.8601 15.317 27.6176 14.997ZM26.7445 15.827L25.3001 15.8182C25.4126 15.4807 25.7326 15.1089 26.312 15.1089C26.5107 15.1089 26.6495 15.1607 26.727 15.2645C26.822 15.3864 26.822 15.5764 26.7445 15.827Z" fill="#FF0000"/>
<path fill-rule="evenodd" clip-rule="evenodd" d="M10 17.6174L11.2969 17.6262L13.0525 13.1543H11.7556L10 17.6174Z" fill="#FF0000"/>
<path fill-rule="evenodd" clip-rule="evenodd" d="M15.8494 14.339L15.7975 14.4771C15.5119 14.2952 15.1312 14.2696 14.9675 14.2696C13.67 14.2608 12.4681 15.2121 12.295 16.3883C12.2431 16.7427 12.3294 17.0802 12.5544 17.3221C12.7531 17.5383 13.0562 17.6596 13.4881 17.6765C13.9462 17.7027 14.3619 17.6246 14.7338 17.4427C14.2319 18.0827 13.4019 18.1258 13.1425 18.1258C12.8487 18.1258 12.52 18.1083 12.2688 17.9877L12.1825 17.9446L11.8281 18.7833L11.9231 18.8096C12.2 18.8877 12.6238 18.9396 12.9694 18.9396C14.5606 18.9483 15.59 18.3777 16.0225 17.2533L17.1381 14.3471L15.8494 14.339ZM14.0331 16.9077C13.8512 16.9077 13.7306 16.8558 13.67 16.7521C13.54 16.5533 13.6356 16.1902 13.765 15.9133C14.0588 15.2908 14.63 15.0483 14.9412 15.0396C15.2094 15.0308 15.3913 15.074 15.5294 15.1952C15.0969 16.7865 14.275 16.9077 14.0331 16.9077Z" fill="#FF0000"/>
<path fill-rule="evenodd" clip-rule="evenodd" d="M10.0866 14.8148C9.7929 14.4429 9.2304 14.2354 8.53852 14.2266C7.43165 14.2179 6.11665 14.8754 5.86602 16.086C5.77977 16.5185 5.83977 16.8641 6.05602 17.1323C6.43665 17.5991 7.1629 17.6598 7.46602 17.6685C9.09227 17.6948 10.0435 16.726 10.2679 15.7573C10.3548 15.4029 10.2941 15.0741 10.0866 14.8148ZM8.96227 15.5848C8.6854 16.8991 7.90727 16.9598 7.7604 16.9598C7.51852 16.9598 7.35415 16.8991 7.25852 16.7866C7.15477 16.6654 7.12852 16.4666 7.18915 16.1985C7.2929 15.6885 7.73415 14.936 8.51227 14.9448C8.6854 14.9448 8.81477 14.9879 8.8929 15.0829C8.97977 15.1954 9.0054 15.3773 8.96227 15.5848Z" fill="#FF0000"/>
<path fill-rule="evenodd" clip-rule="evenodd" d="M4.50794 16.752C4.05794 16.752 3.71232 16.622 3.52169 16.3889C3.35732 16.1901 3.29669 15.9133 3.34857 15.602C3.53044 14.6245 4.49857 13.8895 5.59732 13.8983C5.92607 13.8983 6.23732 13.9589 6.53107 14.0801L6.60919 14.1145L7.03294 13.3014L6.94669 13.2583C6.64419 13.1201 6.22857 13.0333 5.83982 13.0333C3.90232 13.0245 2.18982 14.1314 1.93919 15.5589C1.84419 16.0689 1.95669 16.5189 2.25044 16.8733C2.63982 17.3401 3.33169 17.6083 4.16169 17.6083C4.49044 17.6083 4.88794 17.5651 5.25982 17.4783L5.30294 17.4695L5.77857 16.4145L5.56232 16.5183C5.33794 16.622 4.86232 16.752 4.50794 16.752Z" fill="#FF0000"/>
<path fill-rule="evenodd" clip-rule="evenodd" d="M23.4993 14.2784L23.8624 13.3359L22.4786 13.5697L22.2018 14.2791H21.683L21.4236 14.9709H21.9336L21.3543 16.3809C21.1811 16.7959 21.1724 17.1159 21.3368 17.3322C21.4924 17.5484 21.7949 17.6522 22.2449 17.6609C22.4786 17.6609 22.8155 17.6178 23.0836 17.5484L23.1268 17.5397L23.473 16.7009L23.283 16.7791C23.153 16.8309 22.9368 16.8916 22.7555 16.8916C22.6343 16.9003 22.5911 16.8653 22.5736 16.8397C22.5561 16.8134 22.5043 16.7184 22.6343 16.3984C22.643 16.3809 23.2136 14.9803 23.2136 14.9803H23.9918L24.2599 14.2884L23.4993 14.2784Z" fill="#FF0000"/>
<path fill-rule="evenodd" clip-rule="evenodd" d="M27.4958 14.7462C27.2539 14.4262 26.8471 14.2706 26.2764 14.2618C25.0396 14.2531 23.9758 14.9449 23.6902 15.9399C23.5433 16.4499 23.6208 16.9087 23.8977 17.2462C24.2002 17.6181 24.7364 17.8256 25.4027 17.8343C25.7921 17.8343 26.2414 17.7649 26.6396 17.6524L26.6739 17.6437L27.1239 16.7099L26.9077 16.8049C26.6139 16.9518 26.0858 17.0212 25.7489 17.0212C25.4633 17.0212 25.2389 16.9262 25.1002 16.7618C24.9964 16.6237 24.9621 16.4506 24.9964 16.2599L27.5221 16.2687L27.5564 16.1824C27.7902 15.6018 27.7558 15.0918 27.4958 14.7462ZM26.4839 15.5418L25.2383 15.5331C25.3683 15.2562 25.6533 14.9968 26.1202 14.9968C26.2933 14.9968 26.4058 15.0399 26.4664 15.1181C26.5358 15.2043 26.5446 15.3512 26.4839 15.5418Z" fill="#FF0000"/>
<path fill-rule="evenodd" clip-rule="evenodd" d="M21.0574 14.7892C20.8155 14.4429 20.2618 14.2529 19.4399 14.2529C18.7393 14.2529 18.3499 14.3136 17.9699 14.3654L17.8487 14.3917L17.4855 15.3342L17.6587 15.2823C17.9874 15.1786 18.5493 15.0573 19.3105 15.0748C19.6999 15.0836 19.838 15.1611 19.8812 15.2304C19.9074 15.2648 19.9155 15.3086 19.9074 15.3517H19.8899C19.6043 15.3342 19.1549 15.3173 18.653 15.3517C18.2899 15.3779 17.9437 15.4211 17.5893 15.5592C17.4593 15.6111 17.3555 15.6717 17.2605 15.7323C17.2605 15.7323 17.1568 15.8104 17.1137 15.8536C16.9668 15.9836 16.8543 16.1392 16.7849 16.3292L16.7762 16.3467C16.7418 16.4417 16.698 16.5542 16.6899 16.6667C16.6724 16.9261 16.7505 17.1598 16.9149 17.3329C17.1399 17.5748 17.5205 17.7048 18.0049 17.7048C18.4549 17.7048 18.9218 17.5923 19.1812 17.4973C19.1812 17.5148 19.1899 17.6617 19.1899 17.6617L19.2243 17.6529L19.3105 17.6267V17.6529L20.5818 17.6617L20.5555 17.5492C20.5212 17.3936 20.4862 17.2292 20.6593 16.7792L20.7718 16.4854L21.0918 15.6554C21.2305 15.3167 21.213 15.0223 21.0574 14.7892ZM19.3968 16.6917C19.1718 16.7954 18.8605 16.8648 18.558 16.8817C18.2293 16.8904 18.0999 16.8211 18.0393 16.7604C17.9962 16.7086 17.9874 16.6479 17.9962 16.5786C18.0305 16.3711 18.178 16.2242 18.7743 16.1636C19.0162 16.1373 19.2499 16.1292 19.613 16.1461L19.3968 16.6917Z" fill="#FF0000"/>
<path fill-rule="evenodd" clip-rule="evenodd" d="M11.8113 13.2412L10.125 17.5306H11.2319L12.9188 13.25L11.8113 13.2412Z" fill="white"/>
<path fill-rule="evenodd" clip-rule="evenodd" d="M8.53539 14.3214C7.41976 14.3126 6.18289 14.9789 5.94914 16.1114C5.70726 17.3133 6.77101 17.5814 7.46289 17.5901C9.01101 17.6164 9.96226 16.6907 10.1785 15.7482C10.3948 14.8407 9.59039 14.3301 8.53539 14.3214ZM7.75726 17.0457C7.48914 17.0457 7.29914 16.9764 7.18664 16.847C7.06539 16.7001 7.03101 16.4839 7.10039 16.1895C7.21289 15.6533 7.67976 14.8576 8.51039 14.8664C8.70914 14.8664 8.86476 14.927 8.96039 15.0395C9.07289 15.1695 9.10726 15.3682 9.05539 15.6101C8.76039 16.9857 7.92101 17.0545 7.75726 17.0457Z" fill="white"/>
<path fill-rule="evenodd" clip-rule="evenodd" d="M17.9093 14.4689C18.3155 14.4082 18.6961 14.3389 19.4399 14.3389C20.6336 14.3476 21.3599 14.7451 21.0136 15.6276C20.8668 16.0082 20.7111 16.4145 20.5811 16.752C20.3993 17.2276 20.4343 17.4095 20.4686 17.5739L19.3105 17.5651C19.3105 17.5045 19.3105 17.427 19.3105 17.3489C19.1549 17.4439 18.5668 17.6257 18.0043 17.6257C17.0786 17.6257 16.7418 17.1589 16.7849 16.6745C16.8193 16.2507 17.0618 15.8789 17.5893 15.6714C17.9355 15.5332 18.2899 15.4895 18.653 15.4639C19.2149 15.4207 19.708 15.4464 19.9761 15.4726C20.028 15.317 20.0974 14.9882 19.3099 14.9795C18.4711 14.9707 17.8918 15.1176 17.6318 15.1957L17.9093 14.4689ZM18.7655 16.0601C18.1774 16.1207 17.9611 16.2676 17.9093 16.5532C17.8661 16.7782 18.013 16.9857 18.558 16.9682C18.878 16.9595 19.2243 16.882 19.4661 16.7607L19.743 16.0514C19.3361 16.0257 19.0599 16.0339 18.7655 16.0601Z" fill="white"/>
<path fill-rule="evenodd" clip-rule="evenodd" d="M15.9228 14.4258L15.8534 14.6158C15.6284 14.4171 15.2566 14.3565 14.9797 14.3477C13.6478 14.339 12.5578 15.3165 12.3934 16.389C12.3416 16.7265 12.4366 17.0377 12.6353 17.2452C12.8341 17.4702 13.1453 17.5565 13.5091 17.574C14.0453 17.6002 14.5384 17.4958 15.0141 17.1846C14.6247 17.9627 13.7947 18.2052 13.1547 18.1965C12.8434 18.1965 12.5059 18.179 12.2378 18.0496L11.9609 18.7071C12.2378 18.7852 12.6528 18.8371 12.9816 18.8371C14.5297 18.8458 15.5328 18.2921 15.9566 17.2027L17.0291 14.4177L15.9228 14.4258ZM14.0378 16.994C13.3891 16.994 13.4497 16.3627 13.6834 15.8783C13.9772 15.2558 14.5653 14.9702 14.9372 14.9527C15.2141 14.944 15.4472 14.9871 15.6291 15.1602C15.1878 16.8733 14.3059 17.0027 14.0378 16.994Z" fill="white"/>
<path fill-rule="evenodd" clip-rule="evenodd" d="M5.57829 16.6049C5.37954 16.6999 4.88641 16.8467 4.49704 16.8386C3.45079 16.8299 3.13891 16.1986 3.25141 15.5849C3.44141 14.573 4.41891 13.803 5.58641 13.8117C5.94079 13.8117 6.26954 13.8811 6.55516 14.0017L6.90141 13.3442C6.61579 13.2142 6.20954 13.128 5.82891 13.128C3.96954 13.1192 2.26579 14.1661 2.01516 15.5842C1.79016 16.8299 2.82829 17.5305 4.15141 17.5305C4.50579 17.5305 4.90391 17.4786 5.22391 17.4005L5.57829 16.6049Z" fill="white"/>
<path fill-rule="evenodd" clip-rule="evenodd" d="M23.3696 14.3651L23.724 13.4482L22.5477 13.647L22.2708 14.3651H21.7521L21.5621 14.8751H22.0808L21.4583 16.4057C21.294 16.7951 21.2852 17.0801 21.4321 17.2707C21.5702 17.4607 21.8471 17.5564 22.2708 17.5564C22.5127 17.5564 22.8327 17.5132 23.0927 17.4439L23.3433 16.8382C23.2052 16.8989 22.9715 16.9507 22.7896 16.9595C22.6596 16.9595 22.5821 16.9332 22.5302 16.8732C22.4608 16.7782 22.4783 16.5964 22.5821 16.3457C22.5821 16.3457 23.1008 15.092 23.1877 14.8757H23.9577L24.1565 14.3657H23.3696V14.3651Z" fill="white"/>
<path fill-rule="evenodd" clip-rule="evenodd" d="M26.9551 16.8903C26.6438 17.0372 26.1076 17.1153 25.7532 17.1153C25.4419 17.1153 25.1913 17.0115 25.0351 16.8215C24.8969 16.6484 24.8619 16.4153 24.9313 16.1728L27.4651 16.1815L27.4826 16.1472C27.6813 15.5934 27.6644 15.1178 27.4219 14.7978C27.1969 14.504 26.8163 14.3565 26.2719 14.3565C25.0701 14.3478 24.0494 15.014 23.7726 15.974C23.6344 16.4584 23.7032 16.8822 23.9713 17.2022C24.2651 17.5565 24.7757 17.7559 25.4069 17.7559C25.7701 17.7559 26.2201 17.6953 26.6176 17.574L26.9551 16.8903ZM26.1244 14.9097C26.3232 14.9097 26.4619 14.9615 26.5394 15.0653C26.6257 15.1865 26.6344 15.3765 26.5482 15.6272L25.1038 15.6184C25.2163 15.2815 25.5451 14.9097 26.1244 14.9097Z" fill="white"/>
<path fill-rule="evenodd" clip-rule="evenodd" d="M28.6925 14.2955C28.6925 14.3736 28.6663 14.4336 28.6144 14.4855C28.5625 14.5373 28.5019 14.5636 28.4244 14.5636C28.3463 14.5636 28.2862 14.5373 28.2344 14.4855C28.1825 14.4336 28.1562 14.373 28.1562 14.2955C28.1562 14.2173 28.1825 14.1573 28.2344 14.1055C28.2862 14.0536 28.3469 14.0273 28.4244 14.0273C28.4938 14.0273 28.5625 14.0536 28.6144 14.1055C28.6663 14.1573 28.6925 14.2173 28.6925 14.2955ZM28.6231 14.2955C28.6231 14.2436 28.6056 14.1917 28.5625 14.1486C28.5194 14.1055 28.4762 14.088 28.4156 14.088C28.3637 14.088 28.3119 14.1055 28.2687 14.1486C28.2256 14.1917 28.2081 14.2436 28.2081 14.2955C28.2081 14.3473 28.2256 14.3992 28.2687 14.4423C28.3119 14.4855 28.355 14.503 28.4156 14.503C28.4675 14.503 28.5194 14.4855 28.5625 14.4423C28.6062 14.3992 28.6231 14.3473 28.6231 14.2955ZM28.4587 14.4336C28.4587 14.4161 28.4587 14.3992 28.4587 14.3817C28.4587 14.3642 28.4588 14.3473 28.45 14.3298C28.4413 14.3123 28.4325 14.3123 28.4156 14.3123C28.4156 14.3123 28.4069 14.3123 28.3981 14.3123C28.3981 14.3642 28.3981 14.4073 28.3981 14.4336C28.3894 14.4336 28.3806 14.4336 28.3638 14.4336C28.3463 14.4336 28.3375 14.4336 28.3294 14.4336V14.148C28.39 14.148 28.4244 14.148 28.4419 14.148C28.4763 14.148 28.4937 14.1567 28.5112 14.1655C28.5287 14.1742 28.5375 14.1917 28.5375 14.2086V14.2173C28.5375 14.2261 28.5375 14.2261 28.5375 14.2261C28.5375 14.2436 28.5288 14.2523 28.52 14.2605C28.5113 14.2692 28.5025 14.278 28.4856 14.278C28.5031 14.2867 28.52 14.3042 28.5287 14.3211C28.5375 14.338 28.5375 14.3555 28.5375 14.373C28.5375 14.3817 28.5375 14.3905 28.5375 14.4161H28.4594V14.4336H28.4587ZM28.4675 14.2348C28.4675 14.2261 28.4675 14.2261 28.4675 14.2261C28.4675 14.2173 28.4675 14.2086 28.4587 14.1998C28.45 14.1911 28.45 14.1911 28.4412 14.1911C28.4412 14.1911 28.4325 14.1911 28.4237 14.1911C28.415 14.1911 28.4063 14.1911 28.3975 14.1911V14.2692C28.415 14.2692 28.4319 14.2692 28.4406 14.2692C28.4494 14.2692 28.4581 14.2692 28.4581 14.2605C28.4675 14.2611 28.4675 14.2523 28.4675 14.2348Z" fill="white"/>
</svg>
